<?xml version="1.0" encoding="utf-8"?>
<!-- Generator: Adobe Illustrator 25.4.1, SVG Export Plug-In . SVG Version: 6.00 Build 0)  -->
<svg version="1.1" id="Layer_1" xmlns="http://www.w3.org/2000/svg" xmlns:xlink="http://www.w3.org/1999/xlink" x="0px" y="0px"
	 viewBox="0 0 600 121" style="enable-background:new 0 0 600 121;" xml:space="preserve">
<path d="M152,0h43c6.4,4.8,7,6.5,4.7,14.1c-9.2,29.9-18.7,59.7-27.6,89.6c-2.5,8.4-6.8,14.3-15.1,17.3H0v-11
	c0.4-0.5,0.7-1.1,0.9-1.6c5.9-19,12.2-37.8,17.5-56.9C21.5,40.7,30.1,36,39.7,36c25.5,0.2,50.9-0.3,76.4,0.3
	c11.4,0.2,19-5.8,21.1-15.9C139,11.5,142.7,3.6,152,0z M83.3,96.9c5.3,0,10.6,0.1,16,0c9.3-0.1,15.8-4.9,18.5-13.5
	c1.2-3.8,2-7.6,3.3-11.3c1.9-5.6-1.8-11.4-8.4-11.3c-12.1,0.2-24.3-0.1-36.4,0.1c-7.7,0.1-13.7,5-16.1,12.4c-1.1,3.3-2,6.6-3,9.9
	c-2.7,8.8,0.9,13.6,10.2,13.8C72.6,96.9,78,96.9,83.3,96.9z M292,0c6.1,4.6,6.7,6.5,4.4,14.2c-1,3.3-2.2,6.5-3.1,9.9
	c-2,7.4,1.6,11.9,9.3,12H376c3,0,6,0,9,0.1c8.2,0.3,12,5.1,9.7,12.8c-6.1,20.3-12.5,40.5-18.9,60.7c-2,6.2-7.4,8.8-12.8,11.3h-29
	c-6.9-3.5-8.2-6.5-5.9-13.9c3.4-10.9,6.8-21.9,10.2-32.8c2.8-9.1-0.2-13.5-9.4-13.5c-11.2-0.1-22.3-0.1-33.5,0
	c-9,0.1-14.6,4.4-17.4,13.2c-3.1,9.8-6.4,19.6-9.1,29.6c-2.2,8.4-6.5,14.5-14.9,17.4h-41c-7-3.6-8.3-6.4-5.9-13.9
	c9.3-29.8,18.8-59.6,27.7-89.5C237.2,9.3,241.2,3.3,249,0L292,0z M417,121c-6.4-3.6-7.9-6.5-5.8-13.2c6.2-19.8,12.4-39.7,18.8-59.5
	c2.2-7.4,9-12.4,16.7-12.3c11.3-0.1,22.7-0.1,34,0c8,0.1,11.7,5.1,9.4,12.7c-3.5,11.5-6.9,22.9-10.6,34.3
	c-3.3,10.2,2.4,13.8,10,13.9c10.8,0,21.6,0.1,32.5,0c8.9-0.1,15.3-5,18-13.5c3.4-10.8,6.7-21.6,10-32.4c3.1-10.2,9.3-14.9,20-14.9
	c5.8,0,11.7,0.2,17.5-0.1c5.4-0.3,9.6,1.4,12.5,6.1v6c-0.4,0.6-0.8,1.2-1.1,1.9c-5.6,17.9-11.6,35.8-16.7,53.9
	c-2.4,8.5-6.8,14.3-15.2,17.2L417,121z"/>
</svg>
