<?xml version="1.0" encoding="UTF-8"?><svg id="_レイヤー_1" xmlns="http://www.w3.org/2000/svg" viewBox="0 0 86.48 35.39"><defs><style>.cls-1{fill:#231815;}</style></defs><path class="cls-1" d="M1.24,27.65c0-1.22,.27-2.43,.55-3.65l2.61-10.06H0L1.65,7.41l4.95-.33L9.62,0h9.2l-1.65,7.08h7.42l-1.65,6.86h-7.69l-2.61,10.4c-.14,.66-.14,1.22-.14,1.77,0,1.66,1.1,2.43,3.3,2.43,.82,0,1.65-.22,2.47-.55,0,0,0,0,0,0l1.92,6.19c-1.92,.55-4.81,1.22-8.65,1.22-7.28,0-10.3-3.21-10.3-7.74Z"/><path class="cls-1" d="M24.59,26.81c-.02-8.23,7.45-14.75,15.52-14.77,2.46,0,5.03,1.03,6.09,2.67h.12s1.28-2.17,1.28-2.17l7.48-.02-5.8,21.68-7.6,.02v-2.69s-.12,0-.12,0c-2.57,2-5.96,3.22-8.76,3.23-5.14,.01-8.19-2.84-8.2-7.96Zm17.54-.56l1.86-6.94c-.7-1.13-2.11-1.64-3.16-1.64-3.39,0-6.54,3.39-6.53,8.25,0,2.25,1.06,3.2,2.7,3.2,1.52,0,3.62-.53,5.14-2.87Z"/><path class="cls-1" d="M55.75,26.54c.13-8.23,7.71-14.61,15.78-14.49,2.45,.04,5.01,1.12,6.04,2.78h.12s1.32-2.14,1.32-2.14l7.48,.12-6.18,21.57-7.6-.12,.04-2.69h-.12c-2.6,1.95-6.01,3.11-8.82,3.07-5.14-.08-8.14-2.99-8.06-8.1Zm17.54-.25l1.98-6.9c-.68-1.14-2.08-1.68-3.13-1.7-3.39-.05-6.6,3.28-6.68,8.13-.04,2.25,1,3.22,2.64,3.25,1.52,.02,3.63-.46,5.19-2.78Z"/></svg>